<?xml version="1.0" encoding="utf-8"?>
<!-- Generator: Adobe Illustrator 16.0.0, SVG Export Plug-In . SVG Version: 6.00 Build 0)  -->
<!DOCTYPE svg PUBLIC "-//W3C//DTD SVG 1.1//EN" "http://www.w3.org/Graphics/SVG/1.1/DTD/svg11.dtd">
<svg version="1.1" id="Layer_1" xmlns="http://www.w3.org/2000/svg" xmlns:xlink="http://www.w3.org/1999/xlink" x="0px" y="0px"
	 width="288.802px" height="233.259px" viewBox="0 0 288.802 233.259" enable-background="new 0 0 288.802 233.259"
	 xml:space="preserve">
<path fill="#837D7D" d="M172.635,0c0,0-0.5,71.5,3.5,79.5c0,0,55.333,9.333,80,34c0,0,7,7.001,14,29.001s18.667,63,18.667,63
	s-52.667,25.666-141.667,27.666s-145-29.332-147-28.666s18.667-73.077,29-87.872s41.333-27.463,78.333-35.462c0,0,2-69.336,2-81.167
	H172.635z"/>
<path fill="#9FBCC1" d="M198.802,97.502c0,0,34.332,7.666,48.666,25.333s22.333,63.001,26,75.334l-39,12.333l-7-27.667l-6.333,1.334
	l6.333,26.333c0,0-15.333,9.334-85,10.667c0,0-64-2.666-81-10l6.333-28.334l-6.333-1.666l-6.667,28.666l-40.333-13
	c0,0,16.667-63.333,22.667-70.333s21.667-20,49-27c0,0,13.334,38.001,56.333,37.667S198.802,97.502,198.802,97.502z"/>
<path fill="#9FBCC1" d="M182.802,92.502l10.666,3.333c0,0-14.333,36.174-51.5,35.507s-48.167-33.84-48.167-33.84l10-5
	c0,0,6.367,27.563,39.167,27.005S182.802,92.502,182.802,92.502z"/>
<path fill="#CEC5C0" d="M165.468,6.833c0,0,2.166,78.5,5.5,82.167c0,0-6.333,18-27.333,18.5s-29.667-18.167-29.667-18.167
	s1.833-58.167,2.333-82.5H165.468z"/>
</svg>
