<?xml version="1.0" encoding="utf-8"?>
<!-- Generator: Adobe Illustrator 15.1.0, SVG Export Plug-In . SVG Version: 6.00 Build 0)  -->
<!DOCTYPE svg PUBLIC "-//W3C//DTD SVG 1.1//EN" "http://www.w3.org/Graphics/SVG/1.1/DTD/svg11.dtd">
<svg version="1.1" id="Selected_Items" xmlns="http://www.w3.org/2000/svg" xmlns:xlink="http://www.w3.org/1999/xlink" x="0px"
	 y="0px" width="33.6px" height="33.55px" viewBox="0 0 33.6 33.55" enable-background="new 0 0 33.6 33.55" xml:space="preserve">
<g>
	<path fill-rule="evenodd" clip-rule="evenodd" fill="#333333" d="M31.6,16.8c0,4.067-1.449,7.534-4.35,10.4
		c-2.9,2.9-6.4,4.35-10.5,4.35c-4.066,0-7.55-1.45-10.45-4.35C3.434,24.333,2,20.85,2,16.75C2,12.683,3.434,9.2,6.3,6.3
		C9.2,3.433,12.684,2,16.75,2c4.1,0,7.6,1.433,10.5,4.3C30.15,9.2,31.6,12.7,31.6,16.8z M21.6,11.8L16.7,16.65l4.7,4.75l-4.7-4.75
		L21.6,11.8z M11.6,11.5l5.101,5.15L11.6,11.5z M11.7,21.6l5-4.95L11.7,21.6z"/>
	<path fill-rule="evenodd" clip-rule="evenodd" fill="none" stroke="#FFFFFF" stroke-width="4" stroke-miterlimit="3" d="M31.6,16.8
		c0,4.067-1.449,7.534-4.35,10.4c-2.9,2.9-6.4,4.35-10.5,4.35c-4.066,0-7.55-1.45-10.45-4.35C3.434,24.333,2,20.85,2,16.75
		C2,12.683,3.434,9.2,6.3,6.3C9.2,3.433,12.684,2,16.75,2c4.1,0,7.6,1.433,10.5,4.3C30.15,9.2,31.6,12.7,31.6,16.8z M21.6,11.8
		L16.7,16.65l4.7,4.75 M11.6,11.5l5.101,5.15 M11.7,21.6l5-4.95"/>
</g>
</svg>
