<?xml version="1.0" encoding="utf-8"?>
<!-- Generator: Adobe Illustrator 19.1.0, SVG Export Plug-In . SVG Version: 6.00 Build 0)  -->
<svg version="1.1" id="Layer_1" xmlns="http://www.w3.org/2000/svg" xmlns:xlink="http://www.w3.org/1999/xlink" x="0px" y="0px"
	 viewBox="-398 131 226 316" enable-background="new -398 131 226 316" xml:space="preserve">
<g id="Layer_2">
	<path fill="#837D7D" d="M-181.9,159l0.3,48.1c0,0,9.5,2,9.5,11s0,119.5,0,119.5s1.5,11.5-9.5,12l-7.3,30.9c0,0-8.1,36-82.5,66.4
		h-29.5c0,0-70.9-31.7-78.7-56.7c0,0-3-7.8-3-13.8s-4.5-26.1-4.5-26.1s-8-0.2-10-8.5s0-125.2,0-125.2s1.8-7.2,9.2-8.5l-0.3-49.1
		c0,0,19-13,79.8-11.5S-181.9,159-181.9,159z"/>
	<path fill="#9F9491" d="M-188.7,164.9l-2.3,178.7c0,0,16,53-78.1,95.3h-33.3c0,0-65.9-31.3-72.6-68.8c-3-17-2.4-50.2-3.5-84.5
		c-1.8-58.1-2.2-120.7-2.2-120.7s4-9,50-11S-188.7,164.9-188.7,164.9z"/>
</g>
</svg>
