<?xml version="1.0" encoding="utf-8"?>
<!-- Generator: Adobe Illustrator 16.0.0, SVG Export Plug-In . SVG Version: 6.00 Build 0)  -->
<!DOCTYPE svg PUBLIC "-//W3C//DTD SVG 1.1//EN" "http://www.w3.org/Graphics/SVG/1.1/DTD/svg11.dtd">
<svg version="1.1" id="Layer_1" xmlns="http://www.w3.org/2000/svg" xmlns:xlink="http://www.w3.org/1999/xlink" x="0px" y="0px"
	 width="211px" height="213px" viewBox="0 0 211 213" enable-background="new 0 0 211 213" xml:space="preserve">
<g id="Layer_2">
	<path fill="#837D7D" d="M198.667,100.333c0,0-103.167-20.167-123.333,0S45,143.332,41,207.333c0,0-0.667,5.667-4.667,5.667
		S0,155,0,111S45.001,0,122.667,0S211,60.667,211,77.333S203.832,101.284,198.667,100.333z"/>
	<path fill="#9F9491" d="M179.333,27c0,0,30.333,24.667,18,64c0,0-98.157-21.315-127.824,1.019c0,0-36.176,29.982-36.176,99.982
		c0,0-55-88.334,2-145.333S163.333,10.999,179.333,27z"/>
</g>
</svg>
