<?xml version="1.0" encoding="utf-8"?>
<!-- Generator: Adobe Illustrator 19.1.0, SVG Export Plug-In . SVG Version: 6.00 Build 0)  -->
<svg version="1.1" id="Layer_1" xmlns="http://www.w3.org/2000/svg" xmlns:xlink="http://www.w3.org/1999/xlink" x="0px" y="0px"
	 viewBox="0 0 196.7 201.4" enable-background="new 0 0 196.7 201.4" xml:space="preserve">
<g id="Layer_2">
	<path fill="#837D7D" d="M110.9,0l2,5.3c0,0-46,9.3-67.7,38.3c0,0,15-7.8,61.3-8.8s69,11.5,71.7,23.2s47.5,71.1-12.8,143.4
		c0,0-3.8-55.5-46.5-73.5C76.2,110,7.7,128,0.4,100.3c0,0-1.7-2.3,2-9.7S17.6,42,41.2,18l4.3,4.7c0,0-13,11.7-21.3,35.7
		c0,0,5.7-3.3,10.3-10.3S56.2,13,110.9,0z"/>
	<path fill="#9F9491" d="M173.9,170.5c-4.8-33.5-32.5-44.8-56.5-54.5c-15.4-6.2-58.4-5.7-83.5-8.5C17,105.6,13.1,99.8,13.1,99
		c0,0,15.9-43.7,57.3-50.5c18.5-3,34.8-7.5,80.5,5.5c0,0,32,25.8,39,71.5"/>
</g>
</svg>
