<?xml version="1.0" encoding="utf-8"?>
<!-- Generator: Adobe Illustrator 16.0.0, SVG Export Plug-In . SVG Version: 6.00 Build 0)  -->
<!DOCTYPE svg PUBLIC "-//W3C//DTD SVG 1.1//EN" "http://www.w3.org/Graphics/SVG/1.1/DTD/svg11.dtd">
<svg version="1.1" id="Layer_1" xmlns="http://www.w3.org/2000/svg" xmlns:xlink="http://www.w3.org/1999/xlink" x="0px" y="0px"
	 width="109.667px" height="61px" viewBox="0 0 109.667 61" enable-background="new 0 0 109.667 61" xml:space="preserve">
<g id="Layer_2">
	<path fill="#837D7D" enable-background="new    " d="M33.667,0v6.667c0,0-27.167-0.333-27.167,27H0C0,33.667,0,2.333,33.667,0z"/>
	<path fill="#837D7D" enable-background="new    " d="M30.5,27.833L27,33.666c0,0,19.834,9.667,42.167,9.667s40.5-9.667,40.5-9.667
		l-2.334-5.833c0,0-15.665,10.667-38.999,10S30.5,27.833,30.5,27.833z"/>
	<path fill="#837D7D" enable-background="new    " d="M49,50.167L45.333,55.5c0,0,11.333,5.5,21.667,5.5s20.833-5.416,20.833-5.416
		l-3.166-5.417c0,0-6.001,4.5-18.084,4.5S49,50.167,49,50.167z"/>
</g>
</svg>
