<?xml version="1.0" encoding="utf-8"?>
<!-- Generator: Adobe Illustrator 16.0.0, SVG Export Plug-In . SVG Version: 6.00 Build 0)  -->
<!DOCTYPE svg PUBLIC "-//W3C//DTD SVG 1.1//EN" "http://www.w3.org/Graphics/SVG/1.1/DTD/svg11.dtd">
<svg version="1.1" id="Layer_1" xmlns="http://www.w3.org/2000/svg" xmlns:xlink="http://www.w3.org/1999/xlink" x="0px" y="0px"
	 width="79px" height="137.75px" viewBox="0 0 79 137.75" enable-background="new 0 0 79 137.75" xml:space="preserve">
<g id="Layer_2">
	<path display="none" fill="#837D7D" d="M75.333,0L79,5.5c0,0-15,9.75-39.5,9.75S0,5.5,0,5.5L3.75,0C3.75,0,19.5,9.25,39,9.25
		S75.333,0,75.333,0z"/>
	<path fill="#837D7D" d="M47.75,70L48,99c0,0,17,3,17,18.5s-11.75,20.25-20.25,20.25v-5.25c0,0,14-0.5,14-15.25
		s-17-13.375-17-13.375V70H47.75z"/>
	<rect x="26" y="132.25" fill="#837D7D" width="8.75" height="5.5"/>
</g>
</svg>
