<?xml version="1.0" encoding="utf-8"?>
<!-- Generator: Adobe Illustrator 16.0.0, SVG Export Plug-In . SVG Version: 6.00 Build 0)  -->
<!DOCTYPE svg PUBLIC "-//W3C//DTD SVG 1.1//EN" "http://www.w3.org/Graphics/SVG/1.1/DTD/svg11.dtd">
<svg version="1.1" id="Layer_1" xmlns="http://www.w3.org/2000/svg" xmlns:xlink="http://www.w3.org/1999/xlink" x="0px" y="0px"
	 width="51.5px" height="70.5px" viewBox="0 0 51.5 70.5" enable-background="new 0 0 51.5 70.5" xml:space="preserve">
<path fill="#837D7D" d="M51.5,11.75L43,20c0,0-5.5-8.25-16-8.25S12.75,15.25,7.75,20L0,11.75C0,11.75,8.75,0,25.75,0
	S51.5,11.75,51.5,11.75z"/>
<g>
	<g>
		<g>
			<g>
				<g>
					<path fill="#837D7D" d="M25.75,37.417c0,0-16.083,0.333-23,9.833l4.25,4c0,0,5.917-6.334,9.75-6.5c0,0-2.833,2.334-2.833,8.167
						s4.75,11.167,7.417,11.167h-7.917L13.5,70.5h12.25H38l0.083-6.416h-7.917c2.667,0,7.417-5.334,7.417-11.167
						S34.75,44.75,34.75,44.75c3.833,0.166,9.75,6.5,9.75,6.5l4.25-4C41.833,37.75,25.75,37.417,25.75,37.417z"/>
				</g>
			</g>
		</g>
	</g>
</g>
</svg>
